PathFileType	4	(X/Y/Z)	./resultDataOpenSim/trcMotMarkerGrf/sub10/qtm-03-04.trc
DataRate	CameraRate	NumFrames	NumMarkers	Units	OrigDataRate	OrigDataStartFrame	OrigNumFrames
250.000000	250.000000	14	24	m	250.000000	261	520
Frame#	Time	L.Toe.Tip			R.Toe.Tip			L.Ankle.Lat			R.Ankle.Lat			L.Ankle.Med			R.Ankle.Med			L.Heel			R.Heel			L.Knee.Lat			R.Knee.Lat			L.Knee.Med			R.Knee.Med			L.Thigh.Upper			R.Thigh.Upper			L.ASIS			R.ASIS			V.Sacral			L.Acromium			R.Acromium			C7			L.Elbow			R.Elbow			L.Wrist.Lat			R.Wrist.Lat
		X1	Y1	Z1	X2	Y2	Z2	X3	Y3	Z3	X4	Y4	Z4	X5	Y5	Z5	X6	Y6	Z6	X7	Y7	Z7	X8	Y8	Z8	X9	Y9	Z9	X10	Y10	Z10	X11	Y11	Z11	X12	Y12	Z12	X13	Y13	Z13	X14	Y14	Z14	X15	Y15	Z15	X16	Y16	Z16	X17	Y17	Z17	X18	Y18	Z18	X19	Y19	Z19	X20	Y20	Z20	X21	Y21	Z21	X22	Y22	Z22	X23	Y23	Z23	X24	Y24	Z24

261	1.04	0.019420018	-0.0080418434	-0.086416392	0.07255772	0.073413357	0.077397599	-0.11064501	0.031285076	-0.12758438	-0.042345788	0.15795402	0.063979389	-0.11075339	0.056515471	-0.046028832	0.014255964	0.15923342	-0.0051351854	-0.17980857	0.010810915	-0.087162354	-0.082341553	0.14931411	0.0035892467	-0.023985125	0.41035454	-0.16434869	0.177272	0.47037633	0.11529865	-0.027261079	0.391274	-0.042628592	0.23123103	0.47618864	-0.0067349967	0.019843686	0.80259306	-0.22755407	0.00345744	0.83231562	0.15135365	0.079677092	0.9136732	-0.16240736	0.073650013	0.92762825	0.079341854	-0.12195721	0.93459418	-0.046595421	0.011223253	1.3910497	-0.20372751	-0.015014632	1.3939687	0.11841081	-0.085486605	1.417279	-0.056604929	-0.046033496	1.0498755	-0.28088744	-0.10330033	1.055956	0.15474566	0.1335181	0.88022	-0.28123915	0.012371607	0.84970433	0.21906262
262	1.044	0.019385024	-0.0080213515	-0.086386123	0.091854497	0.072076633	0.077520239	-0.11081826	0.031584746	-0.12725602	-0.025667842	0.15296227	0.063693507	-0.11068242	0.056790973	-0.045821118	0.03104991	0.15569087	-0.0055527969	-0.17982826	0.011240747	-0.08670179	-0.065074235	0.14297476	0.0032663609	-0.023968411	0.41068686	-0.16458299	0.1858344	0.47195964	0.11471017	-0.027414984	0.39169239	-0.042652384	0.2392576	0.47881292	-0.0071109314	0.022622014	0.80256344	-0.22754455	0.0098024358	0.83323079	0.15140832	0.083576034	0.91368541	-0.16316495	0.079153128	0.92807268	0.078587031	-0.11633657	0.93486703	-0.044235253	0.015946862	1.3912807	-0.20388545	-0.0097013973	1.3940688	0.1182716	-0.08034795	1.4175117	-0.056610619	-0.038832194	1.0494847	-0.28106262	-0.0995459	1.0568404	0.15414139	0.14350111	0.88260106	-0.28016834	0.012680885	0.84938115	0.21974846
263	1.048	0.019367723	-0.0079889357	-0.086387758	0.11118958	0.070838449	0.077666737	-0.11101424	0.031855277	-0.12688275	-0.0088991468	0.14801182	0.063423896	-0.11051807	0.057081362	-0.045586808	0.047963628	0.15220069	-0.005940983	-0.17993002	0.011715	-0.086185737	-0.04750098	0.13661265	0.0027865572	-0.023916808	0.4110468	-0.1648679	0.19427349	0.47346793	0.11412728	-0.027588317	0.39202386	-0.042522588	0.24710644	0.48125381	-0.0075039601	0.025549225	0.80251058	-0.22751406	0.016416654	0.83415068	0.1515505	0.087474765	0.91363042	-0.16390306	0.084635093	0.92844584	0.077879322	-0.1109038	0.93508511	-0.042127946	0.020659894	1.391433	-0.20405124	-0.0043675176	1.3940857	0.11813044	-0.075210038	1.4176496	-0.056618687	-0.031618475	1.0490357	-0.28120426	-0.095823405	1.0576519	0.15349063	0.15342726	0.88495766	-0.27908038	0.013222285	0.84907552	0.22048204
264	1.052	0.019366071	-0.0079603376	-0.086426573	0.13057343	0.06970309	0.077822643	-0.11120682	0.032104271	-0.1264814	0.0080370139	0.14308203	0.063124483	-0.11028061	0.05739644	-0.045363779	0.064994138	0.14875235	-0.0062698093	-0.18012356	0.012244538	-0.085605933	-0.029628779	0.13022139	0.0021872617	-0.023960012	0.41139371	-0.16507873	0.20260743	0.47489613	0.11356456	-0.0276332	0.39224452	-0.0423332	0.25478741	0.48351809	-0.0079184394	0.028624473	0.80243233	-0.22746916	0.02292616	0.83494376	0.1516346	0.091374486	0.91350885	-0.16461386	0.090107242	0.92874589	0.077208036	-0.10575924	0.93525133	-0.040492348	0.025366799	1.3915083	-0.2042233	0.00098904646	1.3940181	0.11798934	-0.070074649	1.4177018	-0.056622721	-0.02439164	1.0485294	-0.28131195	-0.092372827	1.0584156	0.15291346	0.16330736	0.88729512	-0.27797132	0.014048126	0.8488005	0.22130778
265	1.056	0.019380785	-0.0079442355	-0.086490853	0.15002015	0.068667028	0.077971645	-0.11141912	0.032351667	-0.12604098	0.025193765	0.13814148	0.062761774	-0.11000916	0.057727812	-0.045164205	0.082134329	0.14533628	-0.0065538586	-0.18035289	0.012792698	-0.084983411	-0.011524512	0.12383536	0.0015720113	-0.024286018	0.41165104	-0.16502277	0.21082635	0.47620498	0.11301665	-0.027540814	0.39236912	-0.042157866	0.26231686	0.48562553	-0.0083484495	0.031763389	0.80231267	-0.22744856	0.029019839	0.83551213	0.15153401	0.095246594	0.91331055	-0.16530253	0.095582376	0.92896895	0.076566288	-0.10082958	0.93535832	-0.039233648	0.030079711	1.3915089	-0.20439649	0.0063671296	1.3938664	0.11784981	-0.064936595	1.4176724	-0.056620031	-0.017148456	1.0479638	-0.28140422	-0.089164608	1.0591329	0.15245349	0.17314613	0.88961933	-0.27684661	0.01505263	0.8485418	0.22220185
266	1.06	0.019382878	-0.0079494504	-0.086534312	0.16953461	0.067727346	0.078101315	-0.11172156	0.032621124	-0.12551614	0.042547606	0.13319179	0.06236353	-0.10972758	0.058060735	-0.044962572	0.099379696	0.14195706	-0.0067926042	-0.18053592	0.013303045	-0.0843485	0.0067308958	0.11752944	0.0009652202	-0.024914743	0.41178266	-0.16464264	0.21890717	0.47736297	0.11246898	-0.027354284	0.39241839	-0.042028211	0.2696937	0.48758342	-0.0087901163	0.034896904	0.80213441	-0.22748368	0.034786421	0.83589195	0.15128915	0.099054678	0.9130153	-0.1659863	0.10106468	0.9291111	0.075955879	-0.095991581	0.93539768	-0.038151857	0.034803359	1.3914405	-0.20457531	0.01176089	1.3936325	0.11771178	-0.059791623	1.4175585	-0.056609989	-0.0098905247	1.0473406	-0.28148781	-0.086007377	1.0597885	0.15207984	0.1829385	0.89193031	-0.2757165	0.015993603	0.84826062	0.22307174
267	1.064	0.019330061	-0.0079791252	-0.086510035	0.18909357	0.066903676	0.07821256	-0.1121445	0.032919362	-0.12488801	0.06004247	0.12827264	0.062022134	-0.10942472	0.058383529	-0.044707044	0.1167348	0.13862116	-0.0069998932	-0.18063573	0.013747674	-0.083707957	0.025112516	0.11137451	0.00028651455	-0.025570628	0.41183541	-0.16412818	0.22684616	0.47836928	0.11192346	-0.027097268	0.39239808	-0.041930524	0.27690533	0.48938284	-0.009246656	0.038015217	0.80188746	-0.22757249	0.040621082	0.83621185	0.15108197	0.1028224	0.91261688	-0.16666244	0.10654916	0.92917323	0.075378398	-0.091145823	0.93537007	-0.037080677	0.039528626	1.3913109	-0.20477598	0.017165317	1.3933194	0.11757432	-0.054642266	1.4173564	-0.056588031	-0.002626328	1.0466664	-0.28155204	-0.082761321	1.0603657	0.15173634	0.1926767	0.89422517	-0.27458476	0.016697636	0.84793098	0.22384313
268	1.068	0.019221541	-0.0080202486	-0.08642745	0.20864279	0.066243857	0.078318668	-0.11258764	0.033223392	-0.12423467	0.077626394	0.12342858	0.061830461	-0.1090953	0.058683865	-0.044351918	0.13420525	0.13534536	-0.0072159476	-0.18067355	0.014136343	-0.083049255	0.043624112	0.1053959	-0.00048864993	-0.025924939	0.41187669	-0.16372071	0.23465795	0.47922953	0.11139685	-0.026767814	0.39230661	-0.04183627	0.28394518	0.49101019	-0.0097189909	0.04115231	0.80156998	-0.22768695	0.046879153	0.83657954	0.15108553	0.10668504	0.91215787	-0.16727126	0.11202925	0.92916044	0.074831896	-0.086243049	0.93528118	-0.035942418	0.044246801	1.391121	-0.2050072	0.022575513	1.3929271	0.11743632	-0.049498358	1.4170686	-0.056544099	0.0046349417	1.0459417	-0.28159113	-0.079410342	1.0608554	0.15138944	0.20236116	0.89650263	-0.27344333	0.017203511	0.84755749	0.22452117
269	1.072	0.019098406	-0.008053671	-0.086339339	0.22814131	0.065784177	0.078423447	-0.11289249	0.03350318	-0.12368126	0.09527054	0.11868751	0.061759046	-0.10877292	0.058947764	-0.043905752	0.15178375	0.13218393	-0.0074601308	-0.18068824	0.014490154	-0.0823666	0.062234622	0.099581867	-0.0012192971	-0.025893474	0.41192321	-0.16348694	0.24235122	0.47993382	0.11089826	-0.026346076	0.39214679	-0.041732404	0.29081609	0.49245525	-0.010200967	0.04436994	0.80119527	-0.22777458	0.053592908	0.8370023	0.15132144	0.11080275	0.91171292	-0.16772806	0.11750524	0.92907709	0.074315681	-0.081304386	0.93511618	-0.034776878	0.048968753	1.3908594	-0.20525377	0.02798109	1.3924536	0.1172976	-0.044364685	1.4167001	-0.056471733	0.011895336	1.0451539	-0.28162096	-0.076008041	1.0612575	0.15104256	0.21200843	0.89876464	-0.27227264	0.017677685	0.8471473	0.22515843
270	1.076	0.01898985	-0.0080727994	-0.08627757	0.24760206	0.065512854	0.078504362	-0.11301048	0.033751869	-0.1232733	0.11302266	0.11405755	0.061622673	-0.10849522	0.059168126	-0.043426962	0.16943851	0.12919899	-0.0077102525	-0.18070461	0.014824753	-0.081669093	0.080901537	0.093920303	-0.0017429301	-0.02559532	0.41195012	-0.16335284	0.24992509	0.48046952	0.11042379	-0.025805097	0.3919288	-0.041619188	0.29752631	0.4937118	-0.010687679	0.047719404	0.80078842	-0.22778391	0.06046934	0.8373903	0.15164883	0.11516504	0.91129891	-0.16802972	0.12298353	0.92892467	0.073830943	-0.076411548	0.93482721	-0.033716823	0.053719912	1.3905111	-0.20548919	0.033374339	1.3919002	0.11715905	-0.039220706	1.4162459	-0.056384125	0.019184152	1.0442912	-0.28168853	-0.072605644	1.0615792	0.15071207	0.22164893	0.90101606	-0.27104557	0.018258018	0.84669027	0.2258074
271	1.08	0.018894207	-0.0080832002	-0.086236895	0.26706046	0.065394784	0.078525988	-0.11303239	0.033977961	-0.12294341	0.1310164	0.10952912	0.061263979	-0.10826662	0.059348629	-0.042960805	0.1871215	0.12640563	-0.0079375514	-0.18072957	0.015147044	-0.080971225	0.099627246	0.088419917	-0.0020530977	-0.025148516	0.41193302	-0.16324023	0.25738283	0.48083703	0.10996001	-0.025123954	0.39166432	-0.041496614	0.30408796	0.49477456	-0.011183004	0.05118023	0.80035701	-0.22772964	0.067180377	0.83763932	0.15190729	0.11953429	0.91082569	-0.16830134	0.12847205	0.92870293	0.07337835	-0.0716257	0.93437731	-0.032860193	0.058516003	1.390071	-0.20570203	0.038762271	1.3912701	0.11701999	-0.034017217	1.4156889	-0.05632716	0.026558407	1.0433693	-0.28186102	-0.069225803	1.0618299	0.15040514	0.23130473	0.90325999	-0.26974659	0.018980759	0.84617766	0.22649614
272	1.084	0.018801576	-0.0080902393	-0.08620424	0.28652433	0.065416908	0.078460773	-0.11306794	0.034184045	-0.12259157	0.14935312	0.10509777	0.06073879	-0.10806736	0.059495441	-0.042508904	0.2047966	0.12378393	-0.0081424199	-0.18076064	0.015454081	-0.08028333	0.11844231	0.08310759	-0.0022597058	-0.024589638	0.41186358	-0.16311085	0.26473266	0.48104087	0.10947718	-0.024302847	0.39136216	-0.041345922	0.31051585	0.4956378	-0.011695583	0.054674834	0.79987697	-0.22769132	0.073620138	0.83771312	0.152049	0.12367061	0.91018893	-0.16867751	0.13397832	0.92841089	0.07295931	-0.066907603	0.93379408	-0.03214685	0.063351619	1.3895453	-0.20590322	0.044163568	1.3905607	0.11687711	-0.028720891	1.4150275	-0.056362316	0.034042583	1.0424528	-0.28214	-0.065886898	1.0620188	0.15012569	0.2409505	0.90549057	-0.26840429	0.019791036	0.84562009	0.2272109
273	1.088	0.018707926	-0.0080943066	-0.086175	0.30597732	0.065592039	0.078290376	-0.11315333	0.034366037	-0.1221626	0.16797771	0.10079064	0.060234555	-0.10787634	0.059612029	-0.042052029	0.22245047	0.12132569	-0.0083528046	-0.1807933	0.015740609	-0.079607282	0.13735861	0.078017886	-0.0024549524	-0.023905657	0.41174295	-0.16295038	0.27198183	0.48108487	0.10894654	-0.023373099	0.39102731	-0.041104194	0.31681956	0.49629738	-0.012229172	0.058157223	0.79932131	-0.22772468	0.079904436	0.83764933	0.152139	0.12757683	0.9093828	-0.16915307	0.13950528	0.92804769	0.072573863	-0.062171138	0.93314133	-0.031443556	0.068211676	1.388942	-0.20610823	0.0495926	1.3897667	0.11672928	-0.023367427	1.414297	-0.056508499	0.041479529	1.041653	-0.2822863	-0.062631108	1.0621562	0.14988882	0.25050837	0.90769393	-0.26709232	0.020620872	0.8450384	0.22791557
274	1.092	0.018613972	-0.0080942083	-0.086149136	0.32539791	0.065935875	0.078002236	-0.11326857	0.034520932	-0.12165781	0.18669941	0.096671479	0.059871394	-0.10768456	0.059703761	-0.041579294	0.24007857	0.11904524	-0.0085906901	-0.18082193	0.016008984	-0.07893846	0.15636225	0.073185932	-0.0026705942	-0.02307958	0.41157343	-0.16275601	0.27914052	0.48098319	0.1083844	-0.022383722	0.3906526	-0.040672168	0.32299385	0.4967503	-0.012778088	0.061638615	0.79868534	-0.22781939	0.086276932	0.83751845	0.15230471	0.13143459	0.90847007	-0.16961486	0.14505122	0.92761355	0.072215668	-0.057403457	0.93244305	-0.030735113	0.073089329	1.388264	-0.20631774	0.055042301	1.3888913	0.11658139	-0.018052925	1.4135412	-0.056682089	0.048404633	1.0410531	-0.28173388	-0.059481138	1.0622476	0.14970508	0.25991746	0.90986295	-0.26586963	0.02146937	0.84444765	0.22859343
